<svg height="472pt" viewBox="0 -63 472 472" width="472pt" xmlns="http://www.w3.org/2000/svg" xmlns:xlink="http://www.w3.org/1999/xlink"><linearGradient id="a"><stop offset="0" stop-color="#00efd1"/><stop offset="1" stop-color="#00acea"/></linearGradient><linearGradient id="b" gradientUnits="userSpaceOnUse" x1="301.859" x2="301.859" xlink:href="#a" y1="-49.287" y2="401.247"/><linearGradient id="c" gradientUnits="userSpaceOnUse" x1="329.138" x2="329.138" xlink:href="#a" y1="-49.287" y2="401.247"/><linearGradient id="d" gradientUnits="userSpaceOnUse" x1="115.583" x2="115.583" xlink:href="#a" y1="-49.287" y2="401.247"/><linearGradient id="e" gradientUnits="userSpaceOnUse" x1="142.862" x2="142.862" xlink:href="#a" y1="-49.287" y2="401.247"/><linearGradient id="f" gradientUnits="userSpaceOnUse" x1="236" x2="236" xlink:href="#a" y1="-49.287" y2="401.247"/><path d="m281.921875 83h39.878906c4.417969 0 8-3.582031 8-8s-3.582031-8-8-8h-39.878906c-4.417969 0-8 3.582031-8 8s3.582031 8 8 8zm0 0" fill="url(#b)"/><g fill="url(#c)"><path d="m281.921875 132h94.433594c4.417969 0 8-3.582031 8-8s-3.582031-8-8-8h-94.433594c-4.417969 0-8 3.582031-8 8s3.582031 8 8 8zm0 0"/><path d="m281.921875 181h94.433594c4.417969 0 8-3.582031 8-8s-3.582031-8-8-8h-94.433594c-4.417969 0-8 3.582031-8 8s3.582031 8 8 8zm0 0"/><path d="m281.921875 230h94.433594c4.417969 0 8-3.582031 8-8s-3.582031-8-8-8h-94.433594c-4.417969 0-8 3.582031-8 8s3.582031 8 8 8zm0 0"/></g><path d="m95.644531 83h39.875c4.417969 0 8-3.582031 8-8s-3.582031-8-8-8h-39.875c-4.417969 0-8 3.582031-8 8s3.582031 8 8 8zm0 0" fill="url(#d)"/><path d="m95.644531 132h94.433594c4.417969 0 8-3.582031 8-8s-3.582031-8-8-8h-94.433594c-4.417969 0-8 3.582031-8 8s3.582031 8 8 8zm0 0" fill="url(#e)"/><path d="m95.644531 181h94.433594c4.417969 0 8-3.582031 8-8s-3.582031-8-8-8h-94.433594c-4.417969 0-8 3.582031-8 8s3.582031 8 8 8zm0 0" fill="url(#e)"/><path d="m95.644531 230h94.433594c4.417969 0 8-3.582031 8-8s-3.582031-8-8-8h-94.433594c-4.417969 0-8 3.582031-8 8s3.582031 8 8 8zm0 0" fill="url(#e)"/><path d="m463.53125 47h-32.53125v-7.613281c.03125-21.652344-17.441406-39.257813-39.09375-39.386719h-101.417969c-4.570312.03125-9.101562.867188-13.386719 2.464844l-33.179687 12.117187c-5.117187 1.863281-10.722656 1.875-15.84375.027344l-33.179687-12.160156c-4.285157-1.589844-8.816407-2.4218752-13.386719-2.449219h-101.417969c-21.652344.128906-39.125 17.734375-39.09375 39.386719v7.613281h-32.53125c-4.554688.070312-8.269531 3.675781-8.46875 8.226562v282.5625c.203125 4.550782 3.914062 8.148438 8.46875 8.210938h455.0625c4.554688-.0625 8.265625-3.660156 8.46875-8.210938v-282.5625c-.199219-4.550781-3.914062-8.15625-8.46875-8.226562zm-180.960938-29.5c2.53125-.957031 5.210938-1.464844 7.917969-1.5h101.417969c12.820312.121094 23.136719 10.566406 23.09375 23.386719v216.933593c0 12.78125-10.3125 22.679688-23.09375 22.679688h-101.417969c-4.578125.082031-9.109375.964844-13.386719 2.609375l-33.101562 12.289063v-262.699219c1.832031-.394531 3.632812-.921875 5.390625-1.574219zm-225.570312 21.886719c-.042969-12.820313 10.273438-23.265625 23.09375-23.386719h101.417969c2.707031.035156 5.386719.542969 7.917969 1.5l33.179687 12.117188c1.757813.65625 3.558594 1.183593 5.390625 1.582031v262.699219l-33.101562-12.285157c-4.277344-1.644531-8.808594-2.527343-13.386719-2.613281h-101.417969c-12.78125 0-23.09375-9.898438-23.09375-22.679688zm399 290.613281h-440v-267h25v193.320312c.011719 10.328126 4.148438 20.222657 11.488281 27.484376 7.339844 7.261718 17.277344 11.292968 27.605469 11.195312h101.417969c2.714843.085938 5.394531.640625 7.917969 1.644531l33.183593 12.191407c8.632813 3.1875 18.117188 3.222656 26.777344.09375l33.179687-12.300782c2.523438-1 5.203126-1.550781 7.917969-1.628906h101.417969c10.328125.097656 20.265625-3.933594 27.605469-11.195312 7.339843-7.261719 11.476562-17.15625 11.488281-27.484376v-193.320312h25zm0 0" fill="url(#f)"/></svg>